# Blender 4.3.0
# www.blender.org
mtllib brick.mtl
o Cube
v -1.390128 -0.750000 0.640128
v -1.390128 -0.640128 0.750000
v -1.500000 -0.640128 0.640128
v -1.390128 -0.735322 0.694992
v -1.444992 -0.735322 0.640128
v -1.442670 -0.721063 0.692670
v -1.444992 -0.640128 0.735322
v -1.390128 -0.694992 0.735322
v -1.442670 -0.692670 0.721063
v -1.485322 -0.694992 0.640128
v -1.485322 -0.640128 0.694992
v -1.471063 -0.692670 0.692670
v -1.390128 0.640128 0.750000
v -1.390128 0.750000 0.640128
v -1.500000 0.640128 0.640128
v -1.390128 0.694992 0.735322
v -1.444992 0.640128 0.735322
v -1.442670 0.692670 0.721063
v -1.444992 0.735322 0.640128
v -1.390128 0.735322 0.694992
v -1.442670 0.721063 0.692670
v -1.485322 0.640128 0.694992
v -1.485322 0.694992 0.640128
v -1.471063 0.692670 0.692670
v -1.390128 -0.750000 -0.640128
v -1.500000 -0.640128 -0.640128
v -1.390128 -0.640128 -0.750000
v -1.444992 -0.735322 -0.640128
v -1.390128 -0.735322 -0.694992
v -1.442670 -0.721063 -0.692670
v -1.485322 -0.640128 -0.694992
v -1.485322 -0.694992 -0.640128
v -1.471063 -0.692670 -0.692670
v -1.390128 -0.694992 -0.735322
v -1.444992 -0.640128 -0.735322
v -1.442670 -0.692670 -0.721063
v -1.390128 0.750000 -0.640128
v -1.390128 0.640128 -0.750000
v -1.500000 0.640128 -0.640128
v -1.390128 0.735322 -0.694992
v -1.444992 0.735322 -0.640128
v -1.442670 0.721063 -0.692670
v -1.444992 0.640128 -0.735322
v -1.390128 0.694992 -0.735322
v -1.442670 0.692670 -0.721063
v -1.485322 0.694992 -0.640128
v -1.485322 0.640128 -0.694992
v -1.471063 0.692670 -0.692670
v 1.390128 -0.750000 0.640128
v 1.500000 -0.640128 0.640128
v 1.390128 -0.640128 0.750000
v 1.444992 -0.735322 0.640128
v 1.390128 -0.735322 0.694992
v 1.442670 -0.721063 0.692670
v 1.485322 -0.640128 0.694992
v 1.485322 -0.694992 0.640128
v 1.471063 -0.692670 0.692670
v 1.390128 -0.694992 0.735322
v 1.444992 -0.640128 0.735322
v 1.442670 -0.692670 0.721063
v 1.390128 0.750000 0.640128
v 1.390128 0.640128 0.750000
v 1.500000 0.640128 0.640128
v 1.390128 0.735322 0.694992
v 1.444992 0.735322 0.640128
v 1.442670 0.721063 0.692670
v 1.444992 0.640128 0.735322
v 1.390128 0.694992 0.735322
v 1.442670 0.692670 0.721063
v 1.485322 0.694992 0.640128
v 1.485322 0.640128 0.694992
v 1.471063 0.692670 0.692670
v 1.390128 -0.750000 -0.640128
v 1.390128 -0.640128 -0.750000
v 1.500000 -0.640128 -0.640128
v 1.390128 -0.735322 -0.694992
v 1.444992 -0.735322 -0.640128
v 1.442670 -0.721063 -0.692670
v 1.444992 -0.640128 -0.735322
v 1.390128 -0.694992 -0.735322
v 1.442670 -0.692670 -0.721063
v 1.485322 -0.694992 -0.640128
v 1.485322 -0.640128 -0.694992
v 1.471063 -0.692670 -0.692670
v 1.390128 0.750000 -0.640128
v 1.500000 0.640128 -0.640128
v 1.390128 0.640128 -0.750000
v 1.444992 0.735322 -0.640128
v 1.390128 0.735322 -0.694992
v 1.442670 0.721063 -0.692670
v 1.485322 0.640128 -0.694992
v 1.485322 0.694992 -0.640128
v 1.471063 0.692670 -0.692670
v 1.390128 0.694992 -0.735322
v 1.444992 0.640128 -0.735322
v 1.442670 0.692670 -0.721063
vn 0.1296 -0.1296 0.9831
vn 0.1296 0.1296 0.9831
vn -0.1296 0.1296 0.9831
vn -0.1296 -0.1296 0.9831
vn 0.9831 -0.1296 -0.1296
vn 0.9831 0.1296 -0.1296
vn 0.9831 0.1296 0.1296
vn 0.9831 -0.1296 0.1296
vn 0.1296 0.9831 -0.1296
vn -0.1296 0.9831 -0.1296
vn -0.1296 0.9831 0.1296
vn 0.1296 0.9831 0.1296
vn -0.9831 -0.1296 0.1296
vn -0.9831 0.1296 0.1296
vn -0.9831 0.1296 -0.1296
vn -0.9831 -0.1296 -0.1296
vn -0.1296 -0.1296 -0.9831
vn -0.1296 0.1296 -0.9831
vn 0.1296 0.1296 -0.9831
vn 0.1296 -0.1296 -0.9831
vn -0.1296 -0.9831 0.1296
vn -0.1216 -0.8623 0.4915
vn -0.4473 -0.7744 0.4473
vn -0.4915 -0.8623 0.1216
vn -0.1216 -0.4915 0.8623
vn -0.4473 -0.4473 0.7744
vn -0.4915 -0.1216 0.8623
vn -0.8623 -0.1216 0.4915
vn -0.7744 -0.4473 0.4473
vn -0.8623 -0.4915 0.1216
vn -0.1216 0.4915 0.8623
vn -0.4473 0.4473 0.7744
vn -0.4915 0.1216 0.8623
vn -0.1216 0.8623 0.4915
vn -0.4473 0.7744 0.4473
vn -0.4915 0.8623 0.1216
vn -0.8623 0.4915 0.1216
vn -0.7744 0.4473 0.4473
vn -0.8623 0.1216 0.4915
vn -0.1296 -0.9831 -0.1296
vn -0.4915 -0.8623 -0.1216
vn -0.4473 -0.7744 -0.4473
vn -0.1216 -0.8623 -0.4915
vn -0.8623 -0.4915 -0.1216
vn -0.7744 -0.4473 -0.4473
vn -0.8623 -0.1216 -0.4915
vn -0.4915 -0.1216 -0.8623
vn -0.4473 -0.4473 -0.7744
vn -0.1216 -0.4915 -0.8623
vn -0.1216 0.8623 -0.4915
vn -0.4473 0.7744 -0.4473
vn -0.4915 0.8623 -0.1216
vn -0.1216 0.4915 -0.8623
vn -0.4473 0.4473 -0.7744
vn -0.4915 0.1216 -0.8623
vn -0.8623 0.1216 -0.4915
vn -0.7744 0.4473 -0.4473
vn -0.8623 0.4915 -0.1216
vn 0.1296 -0.9831 0.1296
vn 0.4915 -0.8623 0.1216
vn 0.4473 -0.7744 0.4473
vn 0.1216 -0.8623 0.4915
vn 0.8623 -0.4915 0.1216
vn 0.7744 -0.4473 0.4473
vn 0.8623 -0.1216 0.4915
vn 0.4915 -0.1216 0.8623
vn 0.4473 -0.4473 0.7744
vn 0.1216 -0.4915 0.8623
vn 0.1216 0.8623 0.4915
vn 0.4473 0.7744 0.4473
vn 0.4915 0.8623 0.1216
vn 0.1216 0.4915 0.8623
vn 0.4473 0.4473 0.7744
vn 0.4915 0.1216 0.8623
vn 0.8623 0.1216 0.4915
vn 0.7744 0.4473 0.4473
vn 0.8623 0.4915 0.1216
vn 0.1296 -0.9831 -0.1296
vn 0.1216 -0.8623 -0.4915
vn 0.4473 -0.7744 -0.4473
vn 0.4915 -0.8623 -0.1216
vn 0.1216 -0.4915 -0.8623
vn 0.4473 -0.4473 -0.7744
vn 0.4915 -0.1216 -0.8623
vn 0.8623 -0.1216 -0.4915
vn 0.7744 -0.4473 -0.4473
vn 0.8623 -0.4915 -0.1216
vn 0.4915 0.8623 -0.1216
vn 0.4473 0.7744 -0.4473
vn 0.1216 0.8623 -0.4915
vn 0.8623 0.4915 -0.1216
vn 0.7744 0.4473 -0.4473
vn 0.8623 0.1216 -0.4915
vn 0.4915 0.1216 -0.8623
vn 0.4473 0.4473 -0.7744
vn 0.1216 0.4915 -0.8623
vt 0.501849 0.507025
vt 0.276103 0.507025
vt 0.276103 0.016785
vt 0.501849 0.016785
vt 0.008546 0.759231
vt 0.008546 0.533485
vt 0.225067 0.533485
vt 0.225067 0.759231
vt 0.535420 0.981156
vt 0.535420 0.510951
vt 0.761166 0.510951
vt 0.761166 0.981156
vt 0.494682 0.759231
vt 0.278161 0.759231
vt 0.278161 0.533485
vt 0.494682 0.533485
vt 0.242532 0.507025
vt 0.016785 0.507025
vt 0.016785 0.016785
vt 0.242532 0.016785
vt 0.761166 0.489049
vt 0.770840 0.488317
vt 0.770431 0.496492
vt 0.761166 0.497596
vt 0.518634 0.016785
vt 0.511523 0.016785
vt 0.511114 0.007521
vt 0.516120 0.007521
vt 0.501849 0.007111
vt 0.501849 0.000000
vt 0.511114 0.002514
vt 0.503228 0.759231
vt 0.502124 0.768496
vt 0.493950 0.768905
vt 0.761166 0.502404
vt 0.770431 0.499877
vt 0.266429 0.016785
vt 0.266838 0.007521
vt 0.276103 0.007111
vt 0.259317 0.016785
vt 0.261831 0.007521
vt 0.770431 0.503508
vt 0.770840 0.511683
vt 0.259317 0.759231
vt 0.268150 0.759231
vt 0.267831 0.768496
vt 0.261613 0.768496
vt 0.277429 0.768905
vt 0.275417 0.776017
vt 0.266415 0.773502
vt 0.535420 0.489049
vt 0.535420 0.497596
vt 0.526155 0.496492
vt 0.525746 0.488317
vt 0.535420 0.502404
vt 0.526155 0.499877
vt 0.493950 0.523811
vt 0.502124 0.524220
vt 0.503228 0.533485
vt 0.242532 0.523811
vt 0.242532 0.516699
vt 0.251796 0.516290
vt 0.251796 0.521297
vt 0.252206 0.507025
vt 0.259317 0.507025
vt 0.256803 0.516290
vt 0.525746 0.511683
vt 0.526155 0.503508
vt 0.000000 0.507025
vt 0.007111 0.507025
vt 0.007521 0.516290
vt 0.002514 0.516290
vt 0.016785 0.516699
vt 0.275417 0.516699
vt 0.277429 0.523811
vt 0.267831 0.524220
vt 0.266415 0.519214
vt 0.268150 0.533485
vt 0.259317 0.533485
vt 0.261613 0.524220
vt 0.761166 0.018844
vt 0.761166 0.008833
vt 0.770431 0.008514
vt 0.770840 0.018112
vt 0.761166 0.000000
vt 0.770431 0.002296
vt 0.235078 0.759231
vt 0.235397 0.768496
vt 0.225800 0.768905
vt 0.243911 0.759231
vt 0.241616 0.768496
vt 0.511523 0.507025
vt 0.511114 0.516290
vt 0.501849 0.516699
vt 0.777952 0.016099
vt 0.775437 0.007098
vt 0.770840 0.981888
vt 0.770431 0.991486
vt 0.761166 0.991167
vt 0.777952 0.983901
vt 0.775437 0.992903
vt 0.276103 0.516699
vt 0.266838 0.516290
vt 0.266428 0.507025
vt 0.243911 0.533485
vt 0.235078 0.533485
vt 0.235397 0.524220
vt 0.241616 0.524220
vt 0.225800 0.523811
vt 0.761166 1.000000
vt 0.770431 0.997705
vt 0.535420 0.018844
vt 0.525746 0.018112
vt 0.526155 0.008514
vt 0.535420 0.008833
vt 0.518634 0.016099
vt 0.521149 0.007098
vt 0.242532 0.007111
vt 0.251796 0.007521
vt 0.252206 0.016785
vt 0.242532 0.000000
vt 0.251796 0.002514
vt 0.009279 0.768905
vt 0.001104 0.768496
vt 0.000000 0.759231
vt 0.535420 0.000000
vt 0.526155 0.002296
vt 0.535420 0.991167
vt 0.526155 0.991486
vt 0.525746 0.981888
vt 0.535420 1.000000
vt 0.526155 0.997705
vt 0.000000 0.533485
vt 0.001104 0.524220
vt 0.009279 0.523811
vt 0.016785 0.000000
vt 0.016785 0.007111
vt 0.007521 0.007521
vt 0.007521 0.002514
vt 0.007111 0.016785
vt 0.518634 0.983901
vt 0.521149 0.992903
vt 0.276103 -0.000000
vt 0.016785 0.523811
vt 0.259317 0.016785
vt 0.000000 0.016785
vt 0.518634 0.507025
vt 0.259317 0.507025
s 1
f 51/1/1 62/2/2 13/3/3 2/4/4
f 75/5/5 86/6/6 63/7/7 50/8/8
f 85/9/9 37/10/10 14/11/11 61/12/12
f 3/13/13 15/14/14 39/15/15 26/16/16
f 27/17/17 38/18/18 87/19/19 74/20/20
f 1/21/21 4/22/22 6/23/23 5/24/24
f 4/25/22 8/26/25 9/27/26 6/28/23
f 2/4/4 7/29/27 9/27/26 8/26/25
f 7/29/27 11/30/28 12/31/29 9/27/26
f 3/13/13 10/32/30 12/33/29 11/34/28
f 10/35/30 5/24/24 6/23/23 12/36/29
f 6/28/23 9/27/26 12/31/29
f 13/3/3 16/37/31 18/38/32 17/39/33
f 16/37/31 20/40/34 21/41/35 18/38/32
f 14/11/11 19/35/36 21/42/35 20/43/34
f 19/44/36 23/45/37 24/46/38 21/47/35
f 15/14/14 22/48/39 24/46/38 23/45/37
f 22/48/39 17/49/33 18/50/32 24/46/38
f 18/50/32 21/47/35 24/46/38
f 25/51/40 28/52/41 30/53/42 29/54/43
f 28/52/41 32/55/44 33/56/45 30/53/42
f 26/16/16 31/57/46 33/58/45 32/59/44
f 31/60/46 35/61/47 36/62/48 33/63/45
f 27/17/17 34/64/49 36/62/48 35/61/47
f 34/64/49 29/65/43 30/66/42 36/62/48
f 30/66/42 33/63/45 36/62/48
f 37/10/10 40/67/50 42/68/51 41/55/52
f 40/69/50 44/70/53 45/71/54 42/72/51
f 38/18/18 43/73/55 45/71/54 44/70/53
f 43/74/55 47/75/56 48/76/57 45/77/54
f 39/15/15 46/78/58 48/76/57 47/75/56
f 46/78/58 41/79/52 42/80/51 48/76/57
f 42/80/51 45/77/54 48/76/57
f 49/81/59 52/82/60 54/83/61 53/84/62
f 52/82/60 56/85/63 57/86/64 54/83/61
f 50/8/8 55/87/65 57/88/64 56/89/63
f 55/87/65 59/90/66 60/91/67 57/88/64
f 51/1/1 58/92/68 60/93/67 59/94/66
f 58/95/68 53/84/62 54/83/61 60/96/67
f 54/83/61 57/86/64 60/96/67
f 61/12/12 64/97/69 66/98/70 65/99/71
f 64/97/69 68/100/72 69/101/73 66/98/70
f 62/2/2 67/102/74 69/103/73 68/104/72
f 67/105/74 71/106/75 72/107/76 69/108/73
f 63/7/7 70/109/77 72/107/76 71/106/75
f 70/110/77 65/99/71 66/98/70 72/111/76
f 66/98/70 69/101/73 72/111/76
f 73/112/78 76/113/79 78/114/80 77/115/81
f 76/113/79 80/116/82 81/117/83 78/114/80
f 74/20/20 79/118/84 81/119/83 80/120/82
f 79/118/84 83/121/85 84/122/86 81/119/83
f 75/5/5 82/123/87 84/124/86 83/125/85
f 82/126/87 77/115/81 78/114/80 84/127/86
f 78/114/80 81/117/83 84/127/86
f 85/9/9 88/128/88 90/129/89 89/130/90
f 88/128/88 92/131/91 93/132/92 90/129/89
f 86/6/6 91/133/93 93/134/92 92/135/91
f 91/136/93 95/137/94 96/138/95 93/139/92
f 87/19/19 94/140/96 96/138/95 95/137/94
f 94/141/96 89/130/90 90/129/89 96/142/95
f 90/129/89 93/132/92 96/142/95
f 25/51/40 1/21/21 5/24/24 28/52/41
f 28/52/41 5/24/24 10/35/30 32/55/44
f 32/59/44 10/32/30 3/13/13 26/16/16
f 2/4/4 13/3/3 17/39/33 7/29/27
f 7/29/27 17/39/33 22/143/39 11/30/28
f 11/34/28 22/48/39 15/14/14 3/13/13
f 14/11/11 37/10/10 41/55/52 19/35/36
f 19/44/36 41/79/52 46/78/58 23/45/37
f 23/45/37 46/78/58 39/15/15 15/14/14
f 38/18/18 27/17/17 35/61/47 43/73/55
f 43/73/55 35/61/47 31/60/46 47/144/56
f 47/75/56 31/57/46 26/16/16 39/15/15
f 73/112/78 25/51/40 29/54/43 76/113/79
f 76/145/79 29/65/43 34/64/49 80/120/82
f 80/120/82 34/64/49 27/17/17 74/20/20
f 37/10/10 85/9/9 89/130/90 40/67/50
f 40/69/50 89/146/90 94/140/96 44/70/53
f 44/70/53 94/140/96 87/19/19 38/18/18
f 86/6/6 75/5/5 83/125/85 91/133/93
f 91/136/93 83/121/85 79/118/84 95/137/94
f 95/137/94 79/118/84 74/20/20 87/19/19
f 49/81/59 73/112/78 77/115/81 52/82/60
f 52/82/60 77/115/81 82/126/87 56/85/63
f 56/89/63 82/123/87 75/5/5 50/8/8
f 85/9/9 61/12/12 65/99/71 88/128/88
f 88/128/88 65/99/71 70/110/77 92/131/91
f 92/135/91 70/109/77 63/7/7 86/6/6
f 62/2/2 51/1/1 59/94/66 67/102/74
f 67/105/74 59/90/66 55/87/65 71/106/75
f 71/106/75 55/87/65 50/8/8 63/7/7
f 1/21/21 49/81/59 53/84/62 4/22/22
f 4/25/22 53/147/62 58/92/68 8/26/25
f 8/26/25 58/92/68 51/1/1 2/4/4
f 61/12/12 14/11/11 20/43/34 64/97/69
f 64/148/69 20/40/34 16/37/31 68/104/72
f 68/104/72 16/37/31 13/3/3 62/2/2
f 25/51/40 73/112/78 49/81/59 1/21/21
