# Blender 4.3.0
# www.blender.org
mtllib paddle.mtl
o Cube
v -4.847553 -0.750000 0.847553
v -4.847553 -0.597553 1.000000
v -5.000000 -0.597553 0.847553
v -4.847553 -0.729634 0.923676
v -4.923676 -0.729634 0.847553
v -4.920455 -0.709850 0.920455
v -4.923676 -0.597553 0.979634
v -4.847553 -0.673676 0.979634
v -4.920455 -0.670455 0.959850
v -4.979634 -0.673676 0.847553
v -4.979634 -0.597553 0.923676
v -4.959850 -0.670455 0.920455
v -4.847553 0.597553 1.000000
v -4.847553 0.750000 0.847553
v -5.000000 0.597553 0.847553
v -4.847553 0.673676 0.979634
v -4.923676 0.597553 0.979634
v -4.920455 0.670455 0.959850
v -4.923676 0.729634 0.847553
v -4.847553 0.729634 0.923676
v -4.920455 0.709850 0.920455
v -4.979634 0.597553 0.923676
v -4.979634 0.673676 0.847553
v -4.959850 0.670455 0.920455
v -4.847553 -0.750000 -0.847553
v -5.000000 -0.597553 -0.847553
v -4.847553 -0.597553 -1.000000
v -4.923677 -0.729634 -0.847553
v -4.847553 -0.729634 -0.923676
v -4.920455 -0.709850 -0.920455
v -4.979634 -0.597553 -0.923676
v -4.979634 -0.673676 -0.847553
v -4.959851 -0.670455 -0.920455
v -4.847553 -0.673676 -0.979634
v -4.923677 -0.597553 -0.979634
v -4.920455 -0.670455 -0.959850
v -4.847553 0.750000 -0.847553
v -4.847553 0.597553 -1.000000
v -5.000000 0.597553 -0.847553
v -4.847553 0.729634 -0.923676
v -4.923676 0.729634 -0.847553
v -4.920455 0.709850 -0.920455
v -4.923676 0.597553 -0.979634
v -4.847553 0.673676 -0.979634
v -4.920455 0.670455 -0.959850
v -4.979634 0.673676 -0.847553
v -4.979634 0.597553 -0.923676
v -4.959850 0.670455 -0.920455
v 4.847553 -0.750000 0.847553
v 5.000000 -0.597553 0.847553
v 4.847553 -0.597553 1.000000
v 4.923677 -0.729634 0.847553
v 4.847553 -0.729634 0.923676
v 4.920455 -0.709850 0.920455
v 4.979634 -0.597553 0.923676
v 4.979634 -0.673676 0.847553
v 4.959851 -0.670455 0.920455
v 4.847553 -0.673676 0.979634
v 4.923677 -0.597553 0.979634
v 4.920455 -0.670455 0.959850
v 4.847553 0.750000 0.847553
v 4.847553 0.597553 1.000000
v 5.000000 0.597553 0.847553
v 4.847553 0.729634 0.923676
v 4.923676 0.729634 0.847553
v 4.920455 0.709850 0.920455
v 4.923676 0.597553 0.979634
v 4.847553 0.673676 0.979634
v 4.920455 0.670455 0.959850
v 4.979634 0.673676 0.847553
v 4.979634 0.597553 0.923676
v 4.959850 0.670455 0.920455
v 4.847553 -0.750000 -0.847553
v 4.847553 -0.597553 -1.000000
v 5.000000 -0.597553 -0.847553
v 4.847553 -0.729634 -0.923676
v 4.923676 -0.729634 -0.847553
v 4.920455 -0.709850 -0.920455
v 4.923676 -0.597553 -0.979634
v 4.847553 -0.673676 -0.979634
v 4.920455 -0.670455 -0.959850
v 4.979634 -0.673676 -0.847553
v 4.979634 -0.597553 -0.923676
v 4.959850 -0.670455 -0.920455
v 4.847553 0.750000 -0.847553
v 5.000000 0.597553 -0.847553
v 4.847553 0.597553 -1.000000
v 4.923677 0.729634 -0.847553
v 4.847553 0.729634 -0.923676
v 4.920455 0.709850 -0.920455
v 4.979634 0.597553 -0.923676
v 4.979634 0.673676 -0.847553
v 4.959851 0.670455 -0.920455
v 4.847553 0.673676 -0.979634
v 4.923677 0.597553 -0.979634
v 4.920455 0.670455 -0.959850
v -4.091294 -0.597553 1.000000
v 4.091294 -0.597553 1.000000
v -4.091294 0.750000 -0.847553
v 4.091294 0.750000 -0.847553
v -4.091294 -0.597553 -1.000000
v 4.091294 -0.597553 -1.000000
v -4.091294 -0.750000 -0.847553
v 4.091294 -0.750000 -0.847553
v -4.091294 -0.729634 -0.923676
v 4.091294 -0.729634 -0.923676
v -4.091294 -0.673676 -0.979634
v 4.091294 -0.673676 -0.979634
v -4.091294 0.729634 -0.923676
v 4.091294 0.729634 -0.923676
v -4.091294 0.673676 -0.979634
v 4.091294 0.673676 -0.979634
v -4.091294 -0.750000 0.847553
v 4.091294 -0.750000 0.847553
v -4.091294 -0.729634 0.923676
v 4.091294 -0.729634 0.923676
v -4.091294 -0.673676 0.979634
v 4.091294 -0.673676 0.979634
v -4.091294 0.750000 0.847553
v 4.091294 0.750000 0.847553
v -4.091294 0.729634 0.923676
v 4.091294 0.729634 0.923676
v -4.091294 0.673676 0.979634
v 4.091294 0.673676 0.979634
v -4.091294 0.597553 1.000000
v 4.091294 0.597553 1.000000
v -4.091294 0.597553 -1.000000
v 4.091294 0.597553 -1.000000
vn 0.9835 0.1280 0.1280
vn 0.9835 -0.1280 -0.1280
vn 0.9835 0.1280 -0.1280
vn -0.0016 0.1287 0.9917
vn 0.1216 0.4916 0.8623
vn -0.0000 0.4998 0.8661
vn -0.9835 0.1280 -0.1280
vn -0.9835 -0.1280 0.1280
vn -0.9835 0.1280 0.1280
vn 0.1280 0.1280 -0.9835
vn 0.0016 -0.1288 -0.9917
vn 0.0016 0.1288 -0.9917
vn 0.1216 0.8623 0.4916
vn -0.0000 0.8661 0.4998
vn -0.1216 0.8623 -0.4916
vn -0.4916 0.8623 -0.1216
vn -0.1280 0.9835 -0.1280
vn 0.1216 -0.4916 -0.8623
vn 0.4488 -0.7727 -0.4488
vn 0.1216 -0.8623 -0.4916
vn -0.4916 0.8623 0.1216
vn -0.1216 0.8623 0.4916
vn -0.1280 0.9835 0.1280
vn -0.4488 -0.7727 0.4488
vn -0.8623 -0.4916 0.1216
vn -0.4916 -0.8623 0.1216
vn 0.8623 0.4916 0.1216
vn 0.8623 0.1216 0.4916
vn -0.8623 0.4916 0.1216
vn -0.4488 0.7727 0.4488
vn -0.4488 -0.4488 0.7727
vn -0.7727 -0.4488 0.4489
vn 0.4916 0.1216 0.8623
vn 0.1280 0.1280 0.9835
vn -0.1216 -0.4916 0.8623
vn -0.1216 -0.8623 0.4916
vn 0.4916 -0.8623 -0.1216
vn 0.1280 -0.9835 -0.1280
vn 0.4488 -0.4488 0.7727
vn 0.8623 -0.1216 0.4916
vn 0.4916 -0.1216 0.8623
vn 0.8623 -0.4916 -0.1216
vn 0.8623 -0.1216 -0.4916
vn -0.4489 0.4488 0.7727
vn -0.7727 0.4488 0.4488
vn 0.1216 0.4916 -0.8623
vn 0.4488 0.7727 -0.4489
vn 0.4488 0.4488 -0.7727
vn 0.4916 0.8623 -0.1216
vn 0.7727 0.4488 -0.4488
vn -0.8623 0.1216 0.4916
vn 0.8623 0.1216 -0.4916
vn 0.4916 0.1216 -0.8623
vn 0.1216 0.8623 -0.4916
vn 0.1280 0.9835 -0.1280
vn -0.1216 0.4916 0.8623
vn -0.4488 -0.7727 -0.4489
vn -0.7727 -0.4488 -0.4488
vn -0.4488 -0.4488 -0.7727
vn 0.4916 0.8623 0.1216
vn 0.1280 0.9835 0.1280
vn 0.7727 -0.4488 -0.4489
vn 0.4916 -0.1216 -0.8623
vn -0.4916 -0.1216 0.8623
vn -0.1280 -0.1280 0.9835
vn 0.4488 0.7727 0.4488
vn -0.8623 -0.1216 0.4916
vn -0.4488 0.7727 -0.4488
vn -0.4488 0.4488 -0.7727
vn -0.7727 0.4488 -0.4489
vn -0.4916 -0.8623 -0.1216
vn -0.1216 -0.8623 -0.4916
vn -0.1280 -0.9835 -0.1280
vn 0.1311 -0.1313 0.9826
vn 0.8623 0.4916 -0.1216
vn -0.8623 -0.1216 -0.4916
vn -0.4916 -0.1216 -0.8623
vn -0.1216 -0.4916 -0.8623
vn 0.4488 -0.7727 0.4489
vn 0.7727 -0.4488 0.4488
vn 0.1216 -0.4916 0.8623
vn -0.1216 0.4916 -0.8623
vn -0.4916 0.1216 -0.8623
vn -0.1312 0.1313 -0.9826
vn -0.8623 0.1216 -0.4916
vn 0.1280 -0.1280 -0.9835
vn -0.8623 0.4916 -0.1216
vn 0.4488 0.4488 0.7727
vn 0.7727 0.4488 0.4489
vn -0.1280 -0.9835 0.1280
vn -0.4916 0.1216 0.8623
vn -0.1280 0.1312 0.9831
vn 0.4488 -0.4488 -0.7727
vn 0.4916 -0.8623 0.1216
vn 0.1216 -0.8623 0.4916
vn 0.1280 -0.9835 0.1280
vn -0.8623 -0.4916 -0.1216
vn -0.9835 -0.1280 -0.1280
vn -0.1313 -0.1311 -0.9826
vn 0.9835 -0.1280 0.1280
vn 0.0016 -0.9913 0.1319
vn 0.0016 -0.9913 -0.1320
vn 0.8623 -0.4916 0.1216
vn -0.0000 -0.8661 -0.4998
vn -0.0016 -0.9917 -0.1287
vn -0.0000 -0.4998 -0.8661
vn -0.0000 0.8661 -0.4998
vn 0.0015 0.9917 -0.1288
vn -0.0000 0.4998 -0.8661
vn -0.0015 0.1319 -0.9913
vn -0.0000 -0.8661 0.4998
vn -0.0000 -0.4998 0.8661
vn 0.0016 -0.1288 0.9917
vn -0.0015 0.9917 0.1288
vn -0.0015 0.9913 -0.1319
vn -0.0016 -0.1319 0.9913
vn 0.0016 -0.9917 0.1287
vn -0.0017 0.9913 0.1319
vn -0.0016 0.1319 0.9913
vn -0.0016 -0.1288 -0.9917
vt 0.880509 0.523551
vt 0.983119 0.679166
vt 0.876058 0.663818
vt 0.821560 0.461975
vt 0.866392 0.511232
vt 0.812091 0.474648
vt 0.880496 0.127688
vt 0.983131 0.283319
vt 0.876078 0.267958
vt 0.868102 0.680723
vt 0.935692 0.779615
vt 0.818790 0.720434
vt 0.862742 0.515963
vt 0.803325 0.488045
vt 0.862742 0.120106
vt 0.867092 0.126836
vt 0.860515 0.125595
vt 0.573352 0.796447
vt 0.579396 0.803839
vt 0.572683 0.803542
vt 0.862850 0.268425
vt 0.858853 0.275124
vt 0.856222 0.269311
vt 0.632321 0.972052
vt 0.625139 0.965671
vt 0.632336 0.965454
vt 0.873787 0.523405
vt 0.878240 0.517963
vt 0.869488 0.267958
vt 0.864373 0.273287
vt 0.631452 0.976733
vt 0.627488 0.972748
vt 0.875175 0.512634
vt 0.871298 0.507700
vt 0.638365 0.979444
vt 0.639034 0.972349
vt 0.579381 0.810437
vt 0.572232 0.810553
vt 0.579956 0.976878
vt 0.590258 0.975532
vt 0.583146 0.983076
vt 0.586578 0.810219
vt 0.590522 0.800544
vt 0.593771 0.810053
vt 0.866742 0.276512
vt 0.868533 0.273000
vt 0.862858 0.676274
vt 0.864369 0.669201
vt 0.866671 0.672348
vt 0.862854 0.664292
vt 0.868557 0.668870
vt 0.874145 0.273760
vt 0.874119 0.669613
vt 0.871433 0.675279
vt 0.858840 0.670998
vt 0.856223 0.665182
vt 0.862872 0.280406
vt 0.632641 0.803768
vt 0.627723 0.803008
vt 0.631761 0.799013
vt 0.867083 0.522692
vt 0.860509 0.521450
vt 0.584229 0.803143
vt 0.583493 0.792959
vt 0.628224 0.982932
vt 0.637784 0.986563
vt 0.868307 0.518036
vt 0.621195 0.975346
vt 0.617946 0.965838
vt 0.868304 0.122175
vt 0.870592 0.119367
vt 0.872634 0.122651
vt 0.632585 0.810332
vt 0.639318 0.803460
vt 0.639731 0.810481
vt 0.968774 0.468041
vt 0.869468 0.663834
vt 0.621459 0.800359
vt 0.628571 0.792815
vt 0.638664 0.796360
vt 0.579076 0.972123
vt 0.583994 0.972883
vt 0.573053 0.979531
vt 0.573650 0.986666
vt 0.866386 0.115373
vt 0.875165 0.116771
vt 0.871289 0.111839
vt 0.878228 0.122100
vt 0.573933 0.789328
vt 0.873771 0.127543
vt 0.870598 0.515229
vt 0.872643 0.518513
vt 0.639486 0.965338
vt 0.871440 0.279414
vt 0.868110 0.284857
vt 0.580265 0.799158
vt 0.579132 0.965559
vt 0.572399 0.972431
vt 0.571986 0.965410
vt 0.625386 0.810079
vt 0.618200 0.809881
vt 0.638067 0.789224
vt 0.972578 0.477255
vt 0.976071 0.091062
vt 0.972555 0.081373
vt 0.979146 0.496947
vt 0.976091 0.486943
vt 0.708868 0.966032
vt 0.708868 0.809819
vt 0.972493 0.310415
vt 0.976255 0.301689
vt 0.586331 0.965812
vt 0.503010 0.802544
vt 0.502849 0.809859
vt 0.503204 0.795227
vt 0.503392 0.787978
vt 0.803316 0.092201
vt 0.795437 0.105985
vt 0.812075 0.078803
vt 0.593517 0.966010
vt 0.968749 0.072158
vt 0.979820 0.688452
vt 0.979127 0.101067
vt 0.972499 0.706243
vt 0.976253 0.697521
vt 0.979828 0.292613
vt 0.821538 0.066127
vt 0.708707 0.973346
vt 0.708513 0.980663
vt 0.708325 0.987913
vt 0.795437 0.501831
vt 0.795437 0.683953
vt 0.708704 0.802511
vt 0.524395 0.763035
vt 0.549641 0.012819
vt 0.550897 0.763637
vt 0.503013 0.973380
vt 0.751093 0.012823
vt 0.742303 0.763242
vt 0.732155 0.012447
vt 0.511170 0.762874
vt 0.521838 0.012087
vt 0.562869 0.012975
vt 0.566524 0.763804
vt 0.718930 0.012574
vt 0.722011 0.763229
vt 0.317939 0.012224
vt 0.166916 0.764479
vt 0.161878 0.013699
vt 0.334977 0.012295
vt 0.322943 0.762962
vt 0.150395 0.764327
vt 0.802252 0.697118
vt 0.810154 0.709390
vt 0.802247 0.301230
vt 0.365105 0.012322
vt 0.478674 0.762502
vt 0.368313 0.763190
vt 0.503225 0.980680
vt 0.810140 0.313493
vt 0.355095 0.763025
vt 0.350989 0.012222
vt 0.708492 0.795211
vt 0.131447 0.764399
vt 0.145366 0.013519
vt 0.117430 0.764149
vt 0.130915 0.013435
vt 0.771263 0.012821
vt 0.757246 0.763629
vt 0.502849 0.966072
vt 0.336162 0.763144
vt 0.795437 0.288077
vt 0.021324 0.012087
vt 0.117814 0.013208
vt 0.935618 0.383785
vt 0.818764 0.324531
vt 0.927639 0.407960
vt 0.502849 0.012219
vt 0.927598 0.012087
vt 0.474787 0.012087
vt 0.503441 0.987913
vt 0.708276 0.787978
vt 0.771263 0.763619
vt 0.012087 0.762457
s 1
f 63/1/1 75/2/2 86/3/3
f 126/4/4 68/5/5 124/6/6
f 39/7/7 3/8/8 15/9/9
f 87/10/10 102/11/11 128/12/12
f 124/6/6 64/13/13 122/14/14
f 40/15/15 41/16/16 37/17/17
f 80/18/18 78/19/19 76/20/20
f 19/21/21 20/22/22 14/23/23
f 6/24/24 10/25/25 5/26/26
f 70/27/27 71/28/28 63/1/1
f 23/29/29 21/30/30 19/21/21
f 6/24/24 9/31/31 12/32/32
f 67/33/33 68/5/5 62/34/34
f 8/35/35 6/24/24 4/36/36
f 76/20/20 77/37/37 73/38/38
f 60/39/39 55/40/40 59/41/41
f 82/42/42 83/43/43 75/44/2
f 78/19/19 82/42/42 77/37/37
f 18/45/44 21/30/30 24/46/45
f 94/47/46 90/48/47 96/49/48
f 88/50/49 93/51/50 90/48/47
f 22/52/51 23/29/29 15/9/9
f 96/49/48 91/53/52 95/54/53
f 88/50/49 89/55/54 85/56/55
f 16/57/56 21/30/30 18/45/44
f 30/58/57 33/59/58 36/60/59
f 64/13/13 65/61/60 61/62/61
f 84/63/62 79/64/63 83/43/43
f 7/65/64 8/35/35 2/66/65
f 66/67/66 70/27/27 65/61/60
f 10/25/25 11/68/67 3/69/8
f 22/52/51 18/45/44 24/46/45
f 42/70/68 45/71/69 48/72/70
f 28/73/71 29/74/72 25/75/73
f 126/4/4 51/76/74 62/34/34
f 91/53/52 92/77/75 86/3/3
f 36/60/59 31/78/76 35/79/77
f 94/47/46 95/54/53 87/10/10
f 34/80/78 30/58/57 36/60/59
f 54/81/79 57/82/80 60/39/39
f 58/83/81 59/41/41 51/84/74
f 44/85/82 42/70/68 40/15/15
f 43/86/83 44/85/82 38/87/84
f 48/72/70 43/86/83 47/88/85
f 79/64/63 80/18/18 74/89/86
f 42/70/68 46/90/87 41/16/16
f 66/67/66 69/91/88 72/92/89
f 4/36/36 5/26/26 1/93/90
f 68/5/5 66/67/66 64/13/13
f 16/57/56 17/94/91 13/95/92
f 72/92/89 67/33/33 71/28/28
f 46/90/87 47/88/85 39/7/7
f 12/32/32 7/65/64 11/68/67
f 78/19/19 81/96/93 84/63/62
f 52/97/94 53/98/95 49/99/96
f 52/97/94 57/82/80 54/81/79
f 31/78/76 32/100/97 26/101/98
f 28/73/71 33/59/58 30/58/57
f 34/80/78 35/79/77 27/102/99
f 58/83/81 54/81/79 60/39/39
f 90/48/47 93/51/50 96/49/48
f 59/103/41 62/34/34 51/76/74
f 31/104/76 43/86/83 35/105/77
f 50/106/100 71/28/28 55/107/40
f 113/108/101 25/75/73 103/109/102
f 17/94/91 2/110/65 13/95/92
f 63/1/1 92/77/75 70/27/27
f 22/52/51 7/111/64 17/94/91
f 41/16/16 14/23/23 37/17/17
f 65/61/60 85/56/55 61/62/61
f 77/37/37 56/112/103 52/97/94
f 55/107/40 67/33/33 59/103/41
f 75/44/2 56/112/103 82/42/42
f 46/90/87 19/21/21 41/16/16
f 106/113/104 73/38/38 104/114/105
f 108/115/106 76/20/20 106/113/104
f 102/116/11 80/18/18 108/115/106
f 109/117/107 37/17/17 99/118/108
f 111/119/109 40/15/15 109/117/107
f 39/7/7 23/29/29 46/90/87
f 55/40/40 56/112/103 50/120/100
f 35/105/77 38/87/84 27/121/99
f 5/26/26 25/75/73 1/93/90
f 65/61/60 92/77/75 88/50/49
f 83/122/43 86/3/3 75/2/2
f 77/37/37 49/99/96 73/38/38
f 5/26/26 32/100/97 28/73/71
f 26/123/98 47/88/85 31/104/76
f 74/124/86 95/54/53 79/125/63
f 79/125/63 91/53/52 83/122/43
f 15/9/9 11/126/67 22/52/51
f 127/127/110 44/85/82 111/119/109
f 115/128/111 1/93/90 113/108/101
f 117/129/112 4/36/36 115/128/111
f 97/130/113 8/35/35 117/129/112
f 122/14/14 61/62/61 120/131/114
f 120/131/114 85/56/55 100/132/115
f 3/69/8 32/100/97 10/25/25
f 34/80/78 105/133/104 29/74/72
f 118/134/112 115/135/111 116/136/111
f 58/83/81 116/137/111 53/98/95
f 107/138/106 106/139/104 105/140/104
f 98/141/116 117/142/112 118/134/112
f 116/136/111 113/143/101 114/144/117
f 114/144/117 103/145/102 104/146/105
f 119/147/118 100/148/115 99/149/108
f 121/150/14 120/151/114 119/147/118
f 127/127/110 27/121/99 38/87/84
f 29/74/72 103/109/102 25/75/73
f 110/152/107 99/149/108 100/148/115
f 94/47/46 110/153/107 89/55/54
f 87/10/10 112/154/109 94/47/46
f 16/57/56 121/155/14 20/22/22
f 125/156/119 98/157/116 126/158/4
f 51/84/74 118/159/112 58/83/81
f 13/95/92 123/160/6 16/57/56
f 105/140/104 104/146/105 103/145/102
f 125/156/119 124/161/6 123/162/6
f 27/102/99 107/163/106 34/80/78
f 112/164/109 109/165/107 110/152/107
f 128/166/12 111/167/109 112/164/109
f 101/168/120 108/169/106 107/138/106
f 89/55/54 100/132/115 85/56/55
f 53/98/95 114/170/117 49/99/96
f 123/162/6 122/171/14 121/150/14
f 14/23/23 99/118/108 37/17/17
f 20/22/22 119/172/118 14/23/23
f 128/166/12 101/173/120 127/174/110
f 49/99/96 104/114/105 73/38/38
f 13/95/92 97/175/113 125/176/119
f 63/1/1 50/106/100 75/2/2
f 126/4/4 62/34/34 68/5/5
f 39/7/7 26/123/98 3/8/8
f 87/10/10 74/124/86 102/11/11
f 124/6/6 68/5/5 64/13/13
f 40/15/15 42/70/68 41/16/16
f 80/18/18 81/96/93 78/19/19
f 19/21/21 21/30/30 20/22/22
f 6/24/24 12/32/32 10/25/25
f 70/27/27 72/92/89 71/28/28
f 23/29/29 24/46/45 21/30/30
f 67/33/33 69/91/88 68/5/5
f 8/35/35 9/31/31 6/24/24
f 76/20/20 78/19/19 77/37/37
f 60/39/39 57/82/80 55/40/40
f 82/42/42 84/63/62 83/43/43
f 78/19/19 84/63/62 82/42/42
f 94/47/46 89/55/54 90/48/47
f 88/50/49 92/77/75 93/51/50
f 22/52/51 24/46/45 23/29/29
f 96/49/48 93/51/50 91/53/52
f 88/50/49 90/48/47 89/55/54
f 16/57/56 20/22/22 21/30/30
f 64/13/13 66/67/66 65/61/60
f 84/63/62 81/96/93 79/64/63
f 7/65/64 9/31/31 8/35/35
f 66/67/66 72/92/89 70/27/27
f 10/25/25 12/32/32 11/68/67
f 22/52/51 17/94/91 18/45/44
f 28/73/71 30/58/57 29/74/72
f 126/4/4 98/177/116 51/76/74
f 91/53/52 93/51/50 92/77/75
f 36/60/59 33/59/58 31/78/76
f 94/47/46 96/49/48 95/54/53
f 34/80/78 29/74/72 30/58/57
f 58/83/81 60/39/39 59/41/41
f 44/85/82 45/71/69 42/70/68
f 43/86/83 45/71/69 44/85/82
f 48/72/70 45/71/69 43/86/83
f 79/64/63 81/96/93 80/18/18
f 42/70/68 48/72/70 46/90/87
f 4/36/36 6/24/24 5/26/26
f 68/5/5 69/91/88 66/67/66
f 16/57/56 18/45/44 17/94/91
f 72/92/89 69/91/88 67/33/33
f 46/90/87 48/72/70 47/88/85
f 12/32/32 9/31/31 7/65/64
f 52/97/94 54/81/79 53/98/95
f 52/97/94 56/112/103 57/82/80
f 31/78/76 33/59/58 32/100/97
f 28/73/71 32/100/97 33/59/58
f 34/80/78 36/60/59 35/79/77
f 58/83/81 53/98/95 54/81/79
f 59/103/41 67/33/33 62/34/34
f 31/104/76 47/88/85 43/86/83
f 50/106/100 63/1/1 71/28/28
f 113/108/101 1/93/90 25/75/73
f 17/94/91 7/111/64 2/110/65
f 63/1/1 86/3/3 92/77/75
f 22/52/51 11/126/67 7/111/64
f 41/16/16 19/21/21 14/23/23
f 65/61/60 88/50/49 85/56/55
f 77/37/37 82/42/42 56/112/103
f 55/107/40 71/28/28 67/33/33
f 75/44/2 50/120/100 56/112/103
f 46/90/87 23/29/29 19/21/21
f 106/113/104 76/20/20 73/38/38
f 108/115/106 80/18/18 76/20/20
f 102/116/11 74/89/86 80/18/18
f 109/117/107 40/15/15 37/17/17
f 111/119/109 44/85/82 40/15/15
f 39/7/7 15/9/9 23/29/29
f 55/40/40 57/82/80 56/112/103
f 35/105/77 43/86/83 38/87/84
f 5/26/26 28/73/71 25/75/73
f 65/61/60 70/27/27 92/77/75
f 83/122/43 91/53/52 86/3/3
f 77/37/37 52/97/94 49/99/96
f 5/26/26 10/25/25 32/100/97
f 26/123/98 39/7/7 47/88/85
f 74/124/86 87/10/10 95/54/53
f 79/125/63 95/54/53 91/53/52
f 15/9/9 3/8/8 11/126/67
f 127/127/110 38/87/84 44/85/82
f 115/128/111 4/36/36 1/93/90
f 117/129/112 8/35/35 4/36/36
f 97/130/113 2/66/65 8/35/35
f 122/14/14 64/13/13 61/62/61
f 120/131/114 61/62/61 85/56/55
f 3/69/8 26/101/98 32/100/97
f 34/80/78 107/163/106 105/133/104
f 118/134/112 117/142/112 115/135/111
f 58/83/81 118/159/112 116/137/111
f 107/138/106 108/169/106 106/139/104
f 98/141/116 97/178/113 117/142/112
f 116/136/111 115/135/111 113/143/101
f 114/144/117 113/143/101 103/145/102
f 119/147/118 120/151/114 100/148/115
f 121/150/14 122/171/14 120/151/114
f 127/127/110 101/179/120 27/121/99
f 29/74/72 105/133/104 103/109/102
f 110/152/107 109/165/107 99/149/108
f 94/47/46 112/154/109 110/153/107
f 87/10/10 128/12/12 112/154/109
f 16/57/56 123/160/6 121/155/14
f 125/156/119 97/180/113 98/157/116
f 51/84/74 98/181/116 118/159/112
f 13/95/92 125/176/119 123/160/6
f 105/140/104 106/139/104 104/146/105
f 125/156/119 126/158/4 124/161/6
f 27/102/99 101/182/120 107/163/106
f 112/164/109 111/167/109 109/165/107
f 128/166/12 127/174/110 111/167/109
f 101/168/120 102/183/11 108/169/106
f 89/55/54 110/153/107 100/132/115
f 53/98/95 116/137/111 114/170/117
f 123/162/6 124/161/6 122/171/14
f 14/23/23 119/172/118 99/118/108
f 20/22/22 121/155/14 119/172/118
f 128/166/12 102/184/11 101/173/120
f 49/99/96 114/170/117 104/114/105
f 13/95/92 2/110/65 97/175/113
