# Blender 4.3.0
# www.blender.org
mtllib paddle.mtl
o Cube
v -4.847553 -0.750000 0.847553
v -4.847553 -0.597553 1.000000
v -5.000000 -0.597553 0.847553
v -4.847553 -0.729634 0.923676
v -4.923676 -0.729634 0.847553
v -4.920455 -0.709850 0.920455
v -4.923676 -0.597553 0.979634
v -4.847553 -0.673676 0.979634
v -4.920455 -0.670455 0.959850
v -4.979634 -0.673676 0.847553
v -4.979634 -0.597553 0.923676
v -4.959850 -0.670455 0.920455
v -4.847553 0.597553 1.000000
v -4.847553 0.750000 0.847553
v -5.000000 0.597553 0.847553
v -4.847553 0.673676 0.979634
v -4.923676 0.597553 0.979634
v -4.920455 0.670455 0.959850
v -4.923676 0.729634 0.847553
v -4.847553 0.729634 0.923676
v -4.920455 0.709850 0.920455
v -4.979634 0.597553 0.923676
v -4.979634 0.673676 0.847553
v -4.959850 0.670455 0.920455
v -4.847553 -0.750000 -0.847553
v -5.000000 -0.597553 -0.847553
v -4.847553 -0.597553 -1.000000
v -4.923677 -0.729634 -0.847553
v -4.847553 -0.729634 -0.923676
v -4.920455 -0.709850 -0.920455
v -4.979634 -0.597553 -0.923676
v -4.979634 -0.673676 -0.847553
v -4.959851 -0.670455 -0.920455
v -4.847553 -0.673676 -0.979634
v -4.923677 -0.597553 -0.979634
v -4.920455 -0.670455 -0.959850
v -4.847553 0.750000 -0.847553
v -4.847553 0.597553 -1.000000
v -5.000000 0.597553 -0.847553
v -4.847553 0.729634 -0.923676
v -4.923676 0.729634 -0.847553
v -4.920455 0.709850 -0.920455
v -4.923676 0.597553 -0.979634
v -4.847553 0.673676 -0.979634
v -4.920455 0.670455 -0.959850
v -4.979634 0.673676 -0.847553
v -4.979634 0.597553 -0.923676
v -4.959850 0.670455 -0.920455
v 4.847553 -0.750000 0.847553
v 5.000000 -0.597553 0.847553
v 4.847553 -0.597553 1.000000
v 4.923677 -0.729634 0.847553
v 4.847553 -0.729634 0.923676
v 4.920455 -0.709850 0.920455
v 4.979634 -0.597553 0.923676
v 4.979634 -0.673676 0.847553
v 4.959851 -0.670455 0.920455
v 4.847553 -0.673676 0.979634
v 4.923677 -0.597553 0.979634
v 4.920455 -0.670455 0.959850
v 4.847553 0.750000 0.847553
v 4.847553 0.597553 1.000000
v 5.000000 0.597553 0.847553
v 4.847553 0.729634 0.923676
v 4.923676 0.729634 0.847553
v 4.920455 0.709850 0.920455
v 4.923676 0.597553 0.979634
v 4.847553 0.673676 0.979634
v 4.920455 0.670455 0.959850
v 4.979634 0.673676 0.847553
v 4.979634 0.597553 0.923676
v 4.959850 0.670455 0.920455
v 4.847553 -0.750000 -0.847553
v 4.847553 -0.597553 -1.000000
v 5.000000 -0.597553 -0.847553
v 4.847553 -0.729634 -0.923676
v 4.923676 -0.729634 -0.847553
v 4.920455 -0.709850 -0.920455
v 4.923676 -0.597553 -0.979634
v 4.847553 -0.673676 -0.979634
v 4.920455 -0.670455 -0.959850
v 4.979634 -0.673676 -0.847553
v 4.979634 -0.597553 -0.923676
v 4.959850 -0.670455 -0.920455
v 4.847553 0.750000 -0.847553
v 5.000000 0.597553 -0.847553
v 4.847553 0.597553 -1.000000
v 4.923677 0.729634 -0.847553
v 4.847553 0.729634 -0.923676
v 4.920455 0.709850 -0.920455
v 4.979634 0.597553 -0.923676
v 4.979634 0.673676 -0.847553
v 4.959851 0.670455 -0.920455
v 4.847553 0.673676 -0.979634
v 4.923677 0.597553 -0.979634
v 4.920455 0.670455 -0.959850
vn 0.1280 0.1280 0.9835
vn -0.1280 -0.1280 0.9835
vn 0.1280 -0.1280 0.9835
vn 0.9835 0.1280 -0.1280
vn 0.9835 -0.1280 0.1280
vn 0.9835 -0.1280 -0.1280
vn -0.1280 0.9835 -0.1280
vn 0.1280 0.9835 0.1280
vn 0.1280 0.9835 -0.1280
vn -0.9835 0.1280 0.1280
vn -0.9835 -0.1280 -0.1280
vn -0.9835 -0.1280 0.1280
vn -0.1280 0.1280 -0.9835
vn 0.1280 -0.1280 -0.9835
vn -0.1280 -0.1280 -0.9835
vn -0.1216 -0.8623 0.4916
vn -0.4916 -0.8623 0.1216
vn -0.1280 -0.9835 0.1280
vn -0.1216 -0.4916 0.8623
vn -0.4488 -0.7727 0.4489
vn -0.4916 -0.1216 0.8623
vn -0.8623 -0.1216 0.4916
vn -0.4489 -0.4488 0.7727
vn -0.8623 -0.4916 0.1216
vn -0.7727 -0.4489 0.4488
vn -0.1216 0.4916 0.8623
vn -0.4916 0.1216 0.8623
vn -0.1280 0.1280 0.9835
vn -0.4488 0.7727 0.4488
vn -0.4489 0.4488 0.7727
vn -0.4916 0.8623 0.1216
vn -0.1216 0.8623 0.4916
vn -0.1280 0.9835 0.1280
vn -0.8623 0.4916 0.1216
vn -0.8623 0.1216 0.4916
vn -0.7727 0.4488 0.4488
vn -0.4916 -0.8623 -0.1216
vn -0.1216 -0.8623 -0.4916
vn -0.1280 -0.9835 -0.1280
vn -0.7727 -0.4488 -0.4488
vn -0.4488 -0.7727 -0.4489
vn -0.8623 -0.1216 -0.4916
vn -0.8623 -0.4916 -0.1216
vn -0.4916 -0.1216 -0.8623
vn -0.1216 -0.4916 -0.8623
vn -0.4488 -0.4488 -0.7727
vn -0.1216 0.8623 -0.4916
vn -0.4916 0.8623 -0.1216
vn -0.1216 0.4916 -0.8623
vn -0.4488 0.7727 -0.4489
vn -0.4916 0.1216 -0.8623
vn -0.8623 0.1216 -0.4916
vn -0.4489 0.4488 -0.7727
vn -0.8623 0.4916 -0.1216
vn -0.9835 0.1280 -0.1280
vn -0.7727 0.4489 -0.4488
vn 0.4916 -0.8623 0.1216
vn 0.1216 -0.8623 0.4916
vn 0.1280 -0.9835 0.1280
vn 0.7727 -0.4488 0.4488
vn 0.4488 -0.7727 0.4489
vn 0.8623 -0.1216 0.4916
vn 0.8623 -0.4916 0.1216
vn 0.4916 -0.1216 0.8623
vn 0.1216 -0.4916 0.8623
vn 0.4488 -0.4488 0.7727
vn 0.1216 0.8623 0.4916
vn 0.4916 0.8623 0.1216
vn 0.1216 0.4916 0.8623
vn 0.4488 0.7727 0.4489
vn 0.4916 0.1216 0.8623
vn 0.8623 0.1216 0.4916
vn 0.4488 0.4488 0.7727
vn 0.8623 0.4916 0.1216
vn 0.9835 0.1280 0.1280
vn 0.7727 0.4489 0.4488
vn 0.1216 -0.8623 -0.4916
vn 0.4916 -0.8623 -0.1216
vn 0.1280 -0.9835 -0.1280
vn 0.1216 -0.4916 -0.8623
vn 0.4488 -0.7727 -0.4489
vn 0.4916 -0.1216 -0.8623
vn 0.8623 -0.1216 -0.4916
vn 0.4488 -0.4488 -0.7727
vn 0.8623 -0.4916 -0.1216
vn 0.7727 -0.4489 -0.4488
vn 0.4916 0.8623 -0.1216
vn 0.1216 0.8623 -0.4916
vn 0.7727 0.4488 -0.4488
vn 0.4488 0.7727 -0.4489
vn 0.8623 0.1216 -0.4916
vn 0.8623 0.4916 -0.1216
vn 0.4916 0.1216 -0.8623
vn 0.1216 0.4916 -0.8623
vn 0.1280 0.1280 -0.9835
vn 0.4488 0.4488 -0.7727
vt 0.599592 0.753811
vt 0.400408 0.996189
vt 0.400408 0.753811
vt 0.599592 0.519056
vt 0.400408 0.730944
vt 0.400408 0.519056
vt 0.871189 0.519056
vt 0.628811 0.730944
vt 0.628811 0.519056
vt 0.599592 0.019056
vt 0.400408 0.230944
vt 0.400408 0.019056
vt 0.599592 0.253811
vt 0.400408 0.496189
vt 0.400408 0.253811
vt 0.128811 0.740460
vt 0.126908 0.730944
vt 0.128811 0.730944
vt 0.128811 0.750000
vt 0.126989 0.740057
vt 0.400408 1.000000
vt 0.375000 0.996189
vt 0.400408 0.009540
vt 0.375000 0.000000
vt 0.400408 0.000000
vt 0.375000 0.019056
vt 0.125000 0.740057
vt 0.125000 0.730944
vt 0.126989 0.750000
vt 0.612279 0.996189
vt 0.599592 1.000000
vt 0.599592 0.996189
vt 0.625000 1.000000
vt 0.611742 1.000000
vt 0.875000 0.730944
vt 0.871189 0.750000
vt 0.871189 0.730944
vt 0.612279 0.019056
vt 0.625000 0.009943
vt 0.625000 0.019056
vt 0.599592 0.009540
vt 0.611742 0.000000
vt 0.611742 0.009943
vt 0.126908 0.519056
vt 0.128811 0.509540
vt 0.128811 0.519056
vt 0.125000 0.509943
vt 0.126989 0.509943
vt 0.400408 0.240460
vt 0.375000 0.230944
vt 0.400408 0.251908
vt 0.375000 0.240057
vt 0.375000 0.253811
vt 0.128811 0.500000
vt 0.126989 0.500000
vt 0.871189 0.500000
vt 0.875000 0.519056
vt 0.612279 0.253811
vt 0.625000 0.250000
vt 0.625000 0.253811
vt 0.599592 0.251908
vt 0.599592 0.240460
vt 0.611742 0.251989
vt 0.612279 0.230944
vt 0.599592 0.230944
vt 0.625000 0.230944
vt 0.611742 0.240057
vt 0.625000 0.240057
vt 0.611742 0.244981
vt 0.373092 0.730944
vt 0.371189 0.740460
vt 0.371189 0.730944
vt 0.388258 0.740057
vt 0.373011 0.740057
vt 0.400408 0.740460
vt 0.387721 0.730944
vt 0.400408 0.751908
vt 0.375000 0.753811
vt 0.371189 0.750000
vt 0.373011 0.750000
vt 0.373996 0.740057
vt 0.628811 0.750000
vt 0.626908 0.730944
vt 0.612279 0.753811
vt 0.625000 0.751989
vt 0.625000 0.753811
vt 0.599592 0.751908
vt 0.599592 0.740460
vt 0.611742 0.751989
vt 0.612279 0.730944
vt 0.599592 0.730944
vt 0.611742 0.740057
vt 0.611742 0.751004
vt 0.371189 0.509540
vt 0.373092 0.519056
vt 0.371189 0.519056
vt 0.371189 0.500000
vt 0.373011 0.509943
vt 0.400408 0.498092
vt 0.375000 0.496189
vt 0.400408 0.509540
vt 0.375000 0.498011
vt 0.387721 0.519056
vt 0.388258 0.509943
vt 0.373011 0.500000
vt 0.373996 0.509943
vt 0.626908 0.519056
vt 0.628811 0.500000
vt 0.611742 0.509943
vt 0.626989 0.500000
vt 0.599592 0.509540
vt 0.612279 0.519056
vt 0.599592 0.498092
vt 0.612279 0.496189
vt 0.599592 0.496189
vt 0.625000 0.498011
vt 0.611743 0.498011
vt 0.611742 0.498996
vt 0.125000 0.519056
vt 0.599592 0.000000
vt 0.625000 0.496189
vt 0.625000 0.996189
vt 0.375000 0.998011
vt 0.375000 0.009943
vt 0.875000 0.740057
vt 0.375000 0.251989
vt 0.875000 0.509943
vt 0.375000 0.751989
vt 0.626989 0.750000
s 1
f 62/1/1 2/2/2 51/3/3
f 86/4/4 50/5/5 75/6/6
f 37/7/7 61/8/8 85/9/9
f 15/10/10 26/11/11 3/12/12
f 38/13/13 74/14/14 27/15/15
f 4/16/16 5/17/17 1/18/18
f 8/19/19 6/20/20 4/16/16
f 7/21/21 8/22/19 2/2/2
f 11/23/22 9/24/23 7/25/21
f 10/26/24 11/23/22 3/12/12
f 5/17/17 12/27/25 10/28/24
f 6/20/20 9/29/23 12/27/25
f 16/30/26 17/31/27 13/32/28
f 16/30/26 21/33/29 18/34/30
f 19/35/31 20/36/32 14/37/33
f 23/38/34 21/39/29 19/40/31
f 22/41/35 23/38/34 15/10/10
f 22/41/35 18/42/30 24/43/36
f 18/42/30 21/39/29 24/43/36
f 28/44/37 29/45/38 25/46/39
f 28/44/37 33/47/40 30/48/41
f 31/49/42 32/50/43 26/11/11
f 35/51/44 33/52/40 31/49/42
f 34/53/45 35/51/44 27/15/15
f 34/54/45 30/48/41 36/55/46
f 30/48/41 33/47/40 36/55/46
f 40/56/47 41/57/48 37/7/7
f 44/58/49 42/59/50 40/60/47
f 43/61/51 44/58/49 38/13/13
f 47/62/52 45/63/53 43/61/51
f 46/64/54 47/62/52 39/65/55
f 41/66/48 48/67/56 46/64/54
f 42/68/50 45/69/53 48/67/56
f 52/70/57 53/71/58 49/72/59
f 52/70/57 57/73/60 54/74/61
f 55/75/62 56/76/63 50/5/5
f 59/77/64 57/73/60 55/75/62
f 58/78/65 59/77/64 51/3/3
f 58/79/65 54/74/61 60/80/66
f 54/74/61 57/81/60 60/80/66
f 64/82/67 65/83/68 61/8/8
f 68/84/69 66/85/70 64/86/67
f 67/87/71 68/84/69 62/1/1
f 71/88/72 69/89/73 67/87/71
f 70/90/74 71/88/72 63/91/75
f 65/83/68 72/92/76 70/90/74
f 66/85/70 69/89/73 72/93/76
f 76/94/77 77/95/78 73/96/79
f 80/97/80 78/98/81 76/94/77
f 79/99/82 80/100/80 74/14/14
f 83/101/83 81/102/84 79/99/82
f 82/103/85 83/101/83 75/6/6
f 77/95/78 84/104/86 82/103/85
f 78/98/81 81/105/84 84/106/86
f 88/107/87 89/108/88 85/9/9
f 88/107/87 93/109/89 90/110/90
f 91/111/91 92/112/92 86/4/4
f 95/113/93 93/109/89 91/111/91
f 94/114/94 95/113/93 87/115/95
f 94/114/94 90/116/90 96/117/96
f 90/116/90 93/118/89 96/117/96
f 1/18/18 28/44/37 25/46/39
f 28/44/37 10/28/24 32/119/43
f 10/26/24 26/11/11 32/50/43
f 13/32/28 7/21/21 2/2/2
f 17/120/27 11/23/22 7/25/21
f 22/41/35 3/12/12 11/23/22
f 37/7/7 19/35/31 14/37/33
f 41/66/48 23/38/34 19/40/31
f 46/64/54 15/10/10 23/38/34
f 27/15/15 43/61/51 38/13/13
f 35/51/44 47/62/52 43/61/51
f 31/49/42 39/65/55 47/62/52
f 25/46/39 76/94/77 73/96/79
f 29/45/38 80/97/80 76/94/77
f 34/53/45 74/14/14 80/100/80
f 85/9/9 40/56/47 37/7/7
f 89/121/88 44/58/49 40/60/47
f 94/114/94 38/13/13 44/58/49
f 75/6/6 91/111/91 86/4/4
f 83/101/83 95/113/93 91/111/91
f 79/99/82 87/115/95 95/113/93
f 73/96/79 52/70/57 49/72/59
f 52/70/57 82/103/85 56/76/63
f 82/103/85 50/5/5 56/76/63
f 61/8/8 88/107/87 85/9/9
f 88/107/87 70/90/74 92/112/92
f 70/90/74 86/4/4 92/112/92
f 51/3/3 67/87/71 62/1/1
f 59/77/64 71/88/72 67/87/71
f 55/75/62 63/91/75 71/88/72
f 49/72/59 4/16/16 1/18/18
f 53/71/58 8/19/19 4/16/16
f 58/78/65 2/2/2 8/22/19
f 14/37/33 64/82/67 61/8/8
f 20/122/32 68/84/69 64/86/67
f 16/30/26 62/1/1 68/84/69
f 73/96/79 1/18/18 25/46/39
f 62/1/1 13/32/28 2/2/2
f 86/4/4 63/91/75 50/5/5
f 37/7/7 14/37/33 61/8/8
f 15/10/10 39/65/55 26/11/11
f 38/13/13 87/115/95 74/14/14
f 4/16/16 6/20/20 5/17/17
f 8/19/19 9/29/23 6/20/20
f 7/21/21 9/123/23 8/22/19
f 11/23/22 12/124/25 9/24/23
f 10/26/24 12/124/25 11/23/22
f 5/17/17 6/20/20 12/27/25
f 16/30/26 18/34/30 17/31/27
f 16/30/26 20/122/32 21/33/29
f 19/35/31 21/125/29 20/36/32
f 23/38/34 24/43/36 21/39/29
f 22/41/35 24/43/36 23/38/34
f 22/41/35 17/120/27 18/42/30
f 28/44/37 30/48/41 29/45/38
f 28/44/37 32/119/43 33/47/40
f 31/49/42 33/52/40 32/50/43
f 35/51/44 36/126/46 33/52/40
f 34/53/45 36/126/46 35/51/44
f 34/54/45 29/45/38 30/48/41
f 40/56/47 42/127/50 41/57/48
f 44/58/49 45/63/53 42/59/50
f 43/61/51 45/63/53 44/58/49
f 47/62/52 48/67/56 45/63/53
f 46/64/54 48/67/56 47/62/52
f 41/66/48 42/68/50 48/67/56
f 52/70/57 54/74/61 53/71/58
f 52/70/57 56/76/63 57/73/60
f 55/75/62 57/73/60 56/76/63
f 59/77/64 60/128/66 57/73/60
f 58/78/65 60/128/66 59/77/64
f 58/79/65 53/71/58 54/74/61
f 64/82/67 66/129/70 65/83/68
f 68/84/69 69/89/73 66/85/70
f 67/87/71 69/89/73 68/84/69
f 71/88/72 72/92/76 69/89/73
f 70/90/74 72/92/76 71/88/72
f 65/83/68 66/129/70 72/92/76
f 76/94/77 78/98/81 77/95/78
f 80/97/80 81/105/84 78/98/81
f 79/99/82 81/102/84 80/100/80
f 83/101/83 84/104/86 81/102/84
f 82/103/85 84/104/86 83/101/83
f 77/95/78 78/98/81 84/104/86
f 88/107/87 90/110/90 89/108/88
f 88/107/87 92/112/92 93/109/89
f 91/111/91 93/109/89 92/112/92
f 95/113/93 96/117/96 93/109/89
f 94/114/94 96/117/96 95/113/93
f 94/114/94 89/121/88 90/116/90
f 1/18/18 5/17/17 28/44/37
f 28/44/37 5/17/17 10/28/24
f 10/26/24 3/12/12 26/11/11
f 13/32/28 17/31/27 7/21/21
f 17/120/27 22/41/35 11/23/22
f 22/41/35 15/10/10 3/12/12
f 37/7/7 41/57/48 19/35/31
f 41/66/48 46/64/54 23/38/34
f 46/64/54 39/65/55 15/10/10
f 27/15/15 35/51/44 43/61/51
f 35/51/44 31/49/42 47/62/52
f 31/49/42 26/11/11 39/65/55
f 25/46/39 29/45/38 76/94/77
f 29/45/38 34/54/45 80/97/80
f 34/53/45 27/15/15 74/14/14
f 85/9/9 89/108/88 40/56/47
f 89/121/88 94/114/94 44/58/49
f 94/114/94 87/115/95 38/13/13
f 75/6/6 83/101/83 91/111/91
f 83/101/83 79/99/82 95/113/93
f 79/99/82 74/14/14 87/115/95
f 73/96/79 77/95/78 52/70/57
f 52/70/57 77/95/78 82/103/85
f 82/103/85 75/6/6 50/5/5
f 61/8/8 65/83/68 88/107/87
f 88/107/87 65/83/68 70/90/74
f 70/90/74 63/91/75 86/4/4
f 51/3/3 59/77/64 67/87/71
f 59/77/64 55/75/62 71/88/72
f 55/75/62 50/5/5 63/91/75
f 49/72/59 53/71/58 4/16/16
f 53/71/58 58/79/65 8/19/19
f 58/78/65 51/3/3 2/2/2
f 14/37/33 20/36/32 64/82/67
f 20/122/32 16/30/26 68/84/69
f 16/30/26 13/32/28 62/1/1
f 73/96/79 49/72/59 1/18/18
