# Blender 4.3.0
# www.blender.org
mtllib ramp.mtl
o Cube
v -1.321488 -3.375873 0.784091
v -1.321488 -3.159964 1.000000
v -1.537397 -3.159964 0.784091
v -1.321488 -3.347028 0.891904
v -1.429301 -3.347028 0.784091
v -1.424738 -3.319009 0.887341
v -1.429301 -3.159964 0.971155
v -1.321488 -3.267777 0.971155
v -1.424738 -3.263214 0.943137
v -1.508552 -3.267777 0.784091
v -1.508552 -3.159964 0.891904
v -1.480534 -3.263214 0.887341
v -1.321488 3.159964 1.000000
v -1.321488 3.375873 0.784091
v -1.537397 3.159964 0.784091
v -1.321488 3.267777 0.971155
v -1.429301 3.159964 0.971155
v -1.424738 3.263214 0.943137
v -1.429301 3.347028 0.784091
v -1.321488 3.347028 0.891904
v -1.424738 3.319009 0.887341
v -1.508552 3.159964 0.891904
v -1.508552 3.267777 0.784091
v -1.480534 3.263214 0.887341
v -1.321488 -3.375873 -0.784091
v -1.537397 -3.159964 -0.784091
v -1.321488 -3.159964 -1.000000
v -1.429301 -3.347028 -0.784091
v -1.321488 -3.347028 -0.891904
v -1.424738 -3.319009 -0.887341
v -1.508552 -3.159964 -0.891904
v -1.508552 -3.267777 -0.784091
v -1.480534 -3.263214 -0.887341
v -1.321488 -3.267777 -0.971155
v -1.429301 -3.159964 -0.971155
v -1.424738 -3.263214 -0.943137
v -1.321488 3.375873 -0.784091
v -1.321488 3.159964 -1.000000
v -1.537397 3.159964 -0.784091
v -1.321488 3.347028 -0.891904
v -1.429301 3.347028 -0.784091
v -1.424738 3.319009 -0.887341
v -1.429301 3.159964 -0.971155
v -1.321488 3.267777 -0.971155
v -1.424738 3.263214 -0.943137
v -1.508552 3.267777 -0.784091
v -1.508552 3.159964 -0.891904
v -1.480534 3.263214 -0.887341
v 1.321488 -3.375873 0.784091
v 1.537397 -3.159964 0.784091
v 1.321488 -3.159964 1.000000
v 1.429301 -3.347028 0.784091
v 1.321488 -3.347028 0.891904
v 1.424738 -3.319009 0.887341
v 1.508552 -3.159964 0.891904
v 1.508552 -3.267777 0.784091
v 1.480534 -3.263214 0.887341
v 1.321488 -3.267777 0.971155
v 1.429301 -3.159964 0.971155
v 1.424738 -3.263214 0.943137
v 1.321488 3.375873 0.784091
v 1.321488 3.159964 1.000000
v 1.537397 3.159964 0.784091
v 1.321488 3.347028 0.891904
v 1.429301 3.347028 0.784091
v 1.424738 3.319009 0.887341
v 1.429301 3.159964 0.971155
v 1.321488 3.267777 0.971155
v 1.424738 3.263214 0.943137
v 1.508552 3.267777 0.784091
v 1.508552 3.159964 0.891904
v 1.480534 3.263214 0.887341
v 1.321488 -3.375873 -0.784091
v 1.321488 -3.159964 -1.000000
v 1.537397 -3.159964 -0.784091
v 1.321488 -3.347028 -0.891904
v 1.429301 -3.347028 -0.784091
v 1.424738 -3.319009 -0.887341
v 1.429301 -3.159964 -0.971155
v 1.321488 -3.267777 -0.971155
v 1.424738 -3.263214 -0.943137
v 1.508552 -3.267777 -0.784091
v 1.508552 -3.159964 -0.891904
v 1.480534 -3.263214 -0.887341
v 1.321488 3.375873 -0.784091
v 1.537397 3.159964 -0.784091
v 1.321488 3.159964 -1.000000
v 1.429301 3.347028 -0.784091
v 1.321488 3.347028 -0.891904
v 1.424738 3.319009 -0.887341
v 1.508552 3.159964 -0.891904
v 1.508552 3.267777 -0.784091
v 1.480534 3.263214 -0.887341
v 1.321488 3.267777 -0.971155
v 1.429301 3.159964 -0.971155
v 1.424738 3.263214 -0.943137
vn 0.1296 -0.1296 0.9831
vn 0.1296 0.1296 0.9831
vn -0.1296 0.1296 0.9831
vn -0.1296 -0.1296 0.9831
vn 0.9831 -0.1296 -0.1296
vn 0.9831 0.1296 -0.1296
vn 0.9831 0.1296 0.1296
vn 0.9831 -0.1296 0.1296
vn 0.1296 0.9831 -0.1296
vn -0.1296 0.9831 -0.1296
vn -0.1296 0.9831 0.1296
vn 0.1296 0.9831 0.1296
vn -0.9831 -0.1296 0.1296
vn -0.9831 0.1296 0.1296
vn -0.9831 0.1296 -0.1296
vn -0.9831 -0.1296 -0.1296
vn -0.1296 -0.1296 -0.9831
vn -0.1296 0.1296 -0.9831
vn 0.1296 0.1296 -0.9831
vn 0.1296 -0.1296 -0.9831
vn -0.1296 -0.9831 0.1296
vn -0.1216 -0.8623 0.4915
vn -0.4473 -0.7744 0.4473
vn -0.4915 -0.8623 0.1216
vn -0.1216 -0.4915 0.8623
vn -0.4473 -0.4473 0.7744
vn -0.4915 -0.1216 0.8623
vn -0.8623 -0.1216 0.4915
vn -0.7744 -0.4473 0.4473
vn -0.8623 -0.4915 0.1216
vn -0.1216 0.4915 0.8623
vn -0.4473 0.4473 0.7744
vn -0.4915 0.1216 0.8623
vn -0.1216 0.8623 0.4915
vn -0.4473 0.7744 0.4473
vn -0.4915 0.8623 0.1216
vn -0.8623 0.4915 0.1216
vn -0.7744 0.4473 0.4473
vn -0.8623 0.1216 0.4915
vn -0.1296 -0.9831 -0.1296
vn -0.4915 -0.8623 -0.1216
vn -0.4473 -0.7744 -0.4473
vn -0.1216 -0.8623 -0.4915
vn -0.8623 -0.4915 -0.1216
vn -0.7744 -0.4473 -0.4473
vn -0.8623 -0.1216 -0.4915
vn -0.4915 -0.1216 -0.8623
vn -0.4473 -0.4473 -0.7744
vn -0.1216 -0.4915 -0.8623
vn -0.1216 0.8623 -0.4915
vn -0.4473 0.7744 -0.4473
vn -0.4915 0.8623 -0.1216
vn -0.1216 0.4915 -0.8623
vn -0.4473 0.4473 -0.7744
vn -0.4915 0.1216 -0.8623
vn -0.8623 0.1216 -0.4915
vn -0.7744 0.4473 -0.4473
vn -0.8623 0.4915 -0.1216
vn 0.1296 -0.9831 0.1296
vn 0.4915 -0.8623 0.1216
vn 0.4473 -0.7744 0.4473
vn 0.1216 -0.8623 0.4915
vn 0.8623 -0.4915 0.1216
vn 0.7744 -0.4473 0.4473
vn 0.8623 -0.1216 0.4915
vn 0.4915 -0.1216 0.8623
vn 0.4473 -0.4473 0.7744
vn 0.1216 -0.4915 0.8623
vn 0.1216 0.8623 0.4915
vn 0.4473 0.7744 0.4473
vn 0.4915 0.8623 0.1216
vn 0.1216 0.4915 0.8623
vn 0.4473 0.4473 0.7744
vn 0.4915 0.1216 0.8623
vn 0.8623 0.1216 0.4915
vn 0.7744 0.4473 0.4473
vn 0.8623 0.4915 0.1216
vn 0.1296 -0.9831 -0.1296
vn 0.1216 -0.8623 -0.4915
vn 0.4473 -0.7744 -0.4473
vn 0.4915 -0.8623 -0.1216
vn 0.1216 -0.4915 -0.8623
vn 0.4473 -0.4473 -0.7744
vn 0.4915 -0.1216 -0.8623
vn 0.8623 -0.1216 -0.4915
vn 0.7744 -0.4473 -0.4473
vn 0.8623 -0.4915 -0.1216
vn 0.4915 0.8623 -0.1216
vn 0.4473 0.7744 -0.4473
vn 0.1216 0.8623 -0.4915
vn 0.8623 0.4915 -0.1216
vn 0.7744 0.4473 -0.4473
vn 0.8623 0.1216 -0.4915
vn 0.4915 0.1216 -0.8623
vn 0.4473 0.4473 -0.7744
vn 0.1216 0.4915 -0.8623
vt 0.985860 0.013199
vt 0.985860 0.673983
vt 0.709522 0.673983
vt 0.709522 0.013199
vt 0.198015 0.157438
vt 0.179296 0.823658
vt 0.045415 0.946349
vt 0.046095 0.055981
vt 0.198575 0.838287
vt 0.478919 0.859767
vt 0.621427 0.960402
vt 0.075772 0.961829
vt 0.650908 0.053651
vt 0.650228 0.944019
vt 0.498308 0.842562
vt 0.517027 0.176342
vt 0.485577 0.187224
vt 0.467641 0.831103
vt 0.210745 0.812776
vt 0.228682 0.168897
vt 0.620551 0.038171
vt 0.638903 0.029895
vt 0.644653 0.035760
vt 0.631046 0.043203
vt 0.659571 0.021623
vt 0.656541 0.031407
vt 0.683123 0.013199
vt 0.672301 0.027626
vt 0.661540 0.041161
vt 0.650921 0.038834
vt 0.641156 0.048438
vt 0.683123 0.983944
vt 0.659889 0.976182
vt 0.656426 0.966597
vt 0.672062 0.969695
vt 0.639482 0.968375
vt 0.644977 0.962198
vt 0.631346 0.955108
vt 0.640940 0.949598
vt 0.650834 0.958764
vt 0.661077 0.956353
vt 0.497748 0.161713
vt 0.505140 0.165563
vt 0.499791 0.172192
vt 0.492708 0.169997
vt 0.511422 0.170386
vt 0.503380 0.174928
vt 0.506574 0.180858
vt 0.496064 0.184471
vt 0.497185 0.177163
vt 0.488717 0.178506
vt 0.474253 0.850280
vt 0.481240 0.847500
vt 0.486367 0.854597
vt 0.470519 0.840694
vt 0.478975 0.841869
vt 0.477903 0.834265
vt 0.488150 0.838064
vt 0.484975 0.844247
vt 0.492871 0.848871
vt 0.074895 0.039598
vt 0.064976 0.044892
vt 0.051346 0.037802
vt 0.056841 0.031625
vt 0.055383 0.050402
vt 0.045488 0.041236
vt 0.035246 0.043647
vt 0.024260 0.030305
vt 0.039896 0.033403
vt 0.013199 0.016055
vt 0.036434 0.023818
vt 0.057419 0.970105
vt 0.051670 0.964240
vt 0.065277 0.956797
vt 0.036752 0.978377
vt 0.039781 0.968593
vt 0.013199 0.986801
vt 0.024022 0.972374
vt 0.034783 0.958839
vt 0.045401 0.961166
vt 0.055167 0.951562
vt 0.217403 0.140233
vt 0.222070 0.149720
vt 0.215083 0.152500
vt 0.209955 0.145403
vt 0.225803 0.159306
vt 0.217348 0.158131
vt 0.218419 0.165735
vt 0.208172 0.161936
vt 0.211348 0.155753
vt 0.203452 0.151129
vt 0.191183 0.834437
vt 0.196532 0.827808
vt 0.203615 0.830003
vt 0.184901 0.829614
vt 0.192942 0.825072
vt 0.189748 0.819142
vt 0.200259 0.815529
vt 0.199138 0.822837
vt 0.207606 0.821494
s 1
f 51/1/1 62/2/2 13/3/3 2/4/4
f 75/5/5 86/6/6 63/7/7 50/8/8
f 85/9/9 37/10/10 14/11/11 61/12/12
f 3/13/13 15/14/14 39/15/15 26/16/16
f 27/17/17 38/18/18 87/19/19 74/20/20
f 1/21/21 4/22/22 6/23/23 5/24/24
f 4/22/22 8/25/25 9/26/26 6/23/23
f 2/27/4 7/28/27 9/26/26 8/25/25
f 7/28/27 11/29/28 12/30/29 9/26/26
f 3/13/13 10/31/30 12/30/29 11/29/28
f 10/31/30 5/24/24 6/23/23 12/30/29
f 6/23/23 9/26/26 12/30/29
f 13/32/3 16/33/31 18/34/32 17/35/33
f 16/33/31 20/36/34 21/37/35 18/34/32
f 14/11/11 19/38/36 21/37/35 20/36/34
f 19/38/36 23/39/37 24/40/38 21/37/35
f 15/14/14 22/41/39 24/40/38 23/39/37
f 22/41/39 17/35/33 18/34/32 24/40/38
f 18/34/32 21/37/35 24/40/38
f 25/42/40 28/43/41 30/44/42 29/45/43
f 28/43/41 32/46/44 33/47/45 30/44/42
f 26/16/16 31/48/46 33/47/45 32/46/44
f 31/48/46 35/49/47 36/50/48 33/47/45
f 27/17/17 34/51/49 36/50/48 35/49/47
f 34/51/49 29/45/43 30/44/42 36/50/48
f 30/44/42 33/47/45 36/50/48
f 37/10/10 40/52/50 42/53/51 41/54/52
f 40/52/50 44/55/53 45/56/54 42/53/51
f 38/18/18 43/57/55 45/56/54 44/55/53
f 43/57/55 47/58/56 48/59/57 45/56/54
f 39/15/15 46/60/58 48/59/57 47/58/56
f 46/60/58 41/54/52 42/53/51 48/59/57
f 42/53/51 45/56/54 48/59/57
f 49/61/59 52/62/60 54/63/61 53/64/62
f 52/62/60 56/65/63 57/66/64 54/63/61
f 50/8/8 55/67/65 57/66/64 56/65/63
f 55/67/65 59/68/66 60/69/67 57/66/64
f 51/70/1 58/71/68 60/69/67 59/68/66
f 58/71/68 53/64/62 54/63/61 60/69/67
f 54/63/61 57/66/64 60/69/67
f 61/12/12 64/72/69 66/73/70 65/74/71
f 64/72/69 68/75/72 69/76/73 66/73/70
f 62/77/2 67/78/74 69/76/73 68/75/72
f 67/78/74 71/79/75 72/80/76 69/76/73
f 63/7/7 70/81/77 72/80/76 71/79/75
f 70/81/77 65/74/71 66/73/70 72/80/76
f 66/73/70 69/76/73 72/80/76
f 73/82/78 76/83/79 78/84/80 77/85/81
f 76/83/79 80/86/82 81/87/83 78/84/80
f 74/20/20 79/88/84 81/87/83 80/86/82
f 79/88/84 83/89/85 84/90/86 81/87/83
f 75/5/5 82/91/87 84/90/86 83/89/85
f 82/91/87 77/85/81 78/84/80 84/90/86
f 78/84/80 81/87/83 84/90/86
f 85/9/9 88/92/88 90/93/89 89/94/90
f 88/92/88 92/95/91 93/96/92 90/93/89
f 86/6/6 91/97/93 93/96/92 92/95/91
f 91/97/93 95/98/94 96/99/95 93/96/92
f 87/19/19 94/100/96 96/99/95 95/98/94
f 94/100/96 89/94/90 90/93/89 96/99/95
f 90/93/89 93/96/92 96/99/95
f 25/42/40 1/21/21 5/24/24 28/43/41
f 28/43/41 5/24/24 10/31/30 32/46/44
f 32/46/44 10/31/30 3/13/13 26/16/16
f 2/27/4 13/32/3 17/35/33 7/28/27
f 7/28/27 17/35/33 22/41/39 11/29/28
f 11/29/28 22/41/39 15/14/14 3/13/13
f 14/11/11 37/10/10 41/54/52 19/38/36
f 19/38/36 41/54/52 46/60/58 23/39/37
f 23/39/37 46/60/58 39/15/15 15/14/14
f 38/18/18 27/17/17 35/49/47 43/57/55
f 43/57/55 35/49/47 31/48/46 47/58/56
f 47/58/56 31/48/46 26/16/16 39/15/15
f 73/82/78 25/42/40 29/45/43 76/83/79
f 76/83/79 29/45/43 34/51/49 80/86/82
f 80/86/82 34/51/49 27/17/17 74/20/20
f 37/10/10 85/9/9 89/94/90 40/52/50
f 40/52/50 89/94/90 94/100/96 44/55/53
f 44/55/53 94/100/96 87/19/19 38/18/18
f 86/6/6 75/5/5 83/89/85 91/97/93
f 91/97/93 83/89/85 79/88/84 95/98/94
f 95/98/94 79/88/84 74/20/20 87/19/19
f 49/61/59 73/82/78 77/85/81 52/62/60
f 52/62/60 77/85/81 82/91/87 56/65/63
f 56/65/63 82/91/87 75/5/5 50/8/8
f 85/9/9 61/12/12 65/74/71 88/92/88
f 88/92/88 65/74/71 70/81/77 92/95/91
f 92/95/91 70/81/77 63/7/7 86/6/6
f 62/77/2 51/70/1 59/68/66 67/78/74
f 67/78/74 59/68/66 55/67/65 71/79/75
f 71/79/75 55/67/65 50/8/8 63/7/7
f 1/21/21 49/61/59 53/64/62 4/22/22
f 4/22/22 53/64/62 58/71/68 8/25/25
f 8/25/25 58/71/68 51/70/1 2/27/4
f 61/12/12 14/11/11 20/36/34 64/72/69
f 64/72/69 20/36/34 16/33/31 68/75/72
f 68/75/72 16/33/31 13/32/3 62/77/2
f 25/42/40 73/82/78 49/61/59 1/21/21
